<?xml version="1.0" encoding="utf-8"?>
<svg xmlns="http://www.w3.org/2000/svg" height="128" width="128" viewBox="0 0 128 128">
  <g>
    <path id="path1" transform="rotate(0,64,64) translate(3.56607097046759,0) scale(3.99999618530637,3.99999618530637)  " fill="#F4981F" d="M25.869989,25.299025C24.574989,25.299025 23.519989,26.353026 23.51899,27.648027 23.517988,28.276028 23.76199,28.867029 24.20599,29.31003 24.648989,29.75403 25.23799,30.000031 25.86599,30.000031L25.866989,30.000031C27.161989,30.000031 28.21599,28.94603 28.21699,27.651028 28.217991,27.023027 27.97399,26.432026 27.530991,25.989026 27.08799,25.544025 26.49799,25.299025 25.870989,25.299025z M24.993996,11.007014L26.993996,11.007014 26.993996,23.446096 27.139793,23.48651C27.815271,23.691804 28.433865,24.061648 28.946991,24.576024 29.766991,25.398025 30.217991,26.491026 30.216992,27.653028 30.213991,30.050032 28.262991,32.000032 25.866989,32.000032L25.863989,32.000032C24.70299,31.999033 23.610989,31.545033 22.78999,30.723032 21.968989,29.901031 21.517988,28.808029 21.518988,27.646029 21.521519,25.623556 22.91086,23.919311 24.78479,23.43611L24.993996,23.387714 24.993996,19.007014 22.993996,19.007014 22.993996,17.007014 24.993996,17.007014 24.993996,15.05301 20.951977,15.05005 20.953976,13.05004 24.993996,13.052999z M10.997007,2.0000029C8.5120078,2.0000029 6.4900075,4.0210066 6.4900075,6.5070109 6.4900075,8.9143591 8.3876077,10.887192 10.765443,11.008143L10.839086,11.010012 11.154867,11.010012 11.228481,11.008143C13.605408,10.887192 15.503007,8.9143591 15.503007,6.5070109 15.503007,4.0210066 13.481008,2.0000029 10.997007,2.0000029z M10.997007,0C14.584007,0 17.503008,2.9190044 17.503008,6.5070109 17.503008,8.4131393 16.679188,10.130458 15.369048,11.321617L15.301405,11.380236 15.407184,11.41263C15.784926,11.534191 16.155861,11.683076 16.518982,11.859009 17.177979,12.180053 17.802002,12.586058 18.375,13.068051L17.087952,14.60003C16.638977,14.223017 16.153992,13.906062 15.644959,13.658016 14.758972,13.229062 13.809998,13.010007 12.825989,13.010007L11.15523,13.010007 10.997007,13.014023 10.838742,13.010007 9.2500001,13.010007C5.3199464,13.010007,2.0000001,16.637012,1.9999996,20.931008L1.9999996,30.000017 16.992004,30.000017 16.992004,32.000011 0,32.000011 0,20.931008C9.1085198E-08,16.485825,2.7389797,12.714657,6.502163,11.456744L6.7051631,11.391843 6.6241165,11.321617C5.3138267,10.130458 4.4900075,8.4131393 4.4900075,6.5070109 4.4900075,2.9190044 7.4090076,0 10.997007,0z" />
  </g>
</svg>

