<svg xmlns="http://www.w3.org/2000/svg"
  xmlns:svg="http://www.w3.org/2000/svg" id="NexT" width="512" height="512" x="0" y="0" enable-background="new 0 0 512 512" version="1.1" viewBox="0 0 512 512" xml:space="preserve">
  <metadata id="metadata3390"/>
  <path id="path1" transform="rotate(0,256,256) translate(26,94.9425206184387) scale(14.375,14.375)  " fill="#6EBB45" d="M31.070068,4.4904912L31.141968,4.4904912C31.61499,4.4904912,32,4.8744982,32,5.3485024L32,21.155674C32,21.608683 31.648071,21.979689 31.203003,22.010687 30.984985,22.081688 30.695068,22.071686 30.424072,21.928686 26.260986,19.725659 21.956055,20.050667 17.953979,22.337687 17.422974,22.639693 15.915039,21.896689 16.650024,21.475678 20.942017,19.023655 25.72998,18.666649 30.212036,20.693672L30.212036,5.3485024C30.212036,4.8744982,30.596069,4.4904912,31.070068,4.4904912z M0.85803223,4.3464926L0.92907715,4.3464926C1.4040527,4.3464926,1.7879639,4.731499,1.7879639,5.2045038L1.7879639,20.549673C6.2700195,18.52265 11.057007,18.880656 15.348999,21.332678 16.084961,21.752682 14.57605,22.496693 14.045044,22.194687 10.042969,19.90766 5.7390137,19.58166 1.5760498,21.785687 1.3040771,21.929686 1.0150146,21.938689 0.79602051,21.868689 0.35107422,21.836682 0,21.466683 0,21.011677L0,5.2045038C0,4.731499,0.3840332,4.3464926,0.85803223,4.3464926z M24.032959,0.087443032C25.30896,0.085444279,26.791992,0.25645139,28.511963,0.68145146L28.513062,18.902651C28.513062,18.902651,22.608032,15.793617,16.782959,20.135668L16.886963,3.372483C16.886963,3.3724828,18.505981,0.099444367,24.032959,0.087443032z M7.6330566,0.00044409379C7.723999,0.00044426088 7.8129883,-0.00055520078 7.901001,0.00044409379 13.46106,0.041445077 15.089966,3.2634804 15.089966,3.2634804L15.217041,19.992668C9.0429688,16.120623,3.4859619,18.758654,3.4859619,18.758654L3.4870605,0.53745284C5.0600586,0.17245085,6.4350586,0.013444892,7.6330566,0.00044409379z" />
</svg>